<?xml version="1.0" encoding="utf-8"?>
<!-- Generator: Adobe Illustrator 20.1.0, SVG Export Plug-In . SVG Version: 6.00 Build 0)  -->
<svg version="1.1" id="Layer_1" xmlns="http://www.w3.org/2000/svg" xmlns:xlink="http://www.w3.org/1999/xlink" x="0px" y="0px"
	 viewBox="0 0 300 250" enable-background="new 0 0 300 250" xml:space="preserve">
<g id="tan_circles">
	<path fill="#F8DEB8" d="M158.5,35c0,4.7-3.8,8.5-8.5,8.5s-8.5-3.8-8.5-8.5s3.8-8.5,8.5-8.5S158.5,30.3,158.5,35z"/>
	<path fill="#F8DEB8" d="M130.3,36.8c1.5,4.5-1,9.3-5.5,10.7c-4.5,1.5-9.3-1-10.7-5.5c-1.5-4.5,1-9.3,5.5-10.7
		C124,29.9,128.8,32.3,130.3,36.8z"/>
	<path fill="#F8DEB8" d="M104,47.2c2.8,3.8,1.9,9.1-1.9,11.9c-3.8,2.8-9.1,1.9-11.9-1.9c-2.8-3.8-1.9-9.1,1.9-11.9
		C95.9,42.6,101.2,43.4,104,47.2z"/>
	<path fill="#F8DEB8" d="M82.2,65.2c3.8,2.8,4.6,8.1,1.9,11.9c-2.8,3.8-8.1,4.6-11.9,1.9c-3.8-2.8-4.6-8.1-1.9-11.9
		C73.1,63.3,78.4,62.5,82.2,65.2z"/>
	<path fill="#F8DEB8" d="M67,89.1c4.5,1.5,6.9,6.2,5.5,10.7c-1.5,4.5-6.2,6.9-10.7,5.5c-4.5-1.5-6.9-6.2-5.5-10.7
		C57.8,90.1,62.6,87.7,67,89.1z"/>
	<path fill="#F8DEB8" d="M60,116.5c4.7,0,8.5,3.8,8.5,8.5c0,4.7-3.8,8.5-8.5,8.5s-8.5-3.8-8.5-8.5C51.5,120.3,55.3,116.5,60,116.5z"
		/>
	<path fill="#F8DEB8" d="M61.8,144.7c4.5-1.5,9.3,1,10.7,5.5c1.5,4.5-1,9.3-5.5,10.7s-9.3-1-10.7-5.5
		C54.9,151,57.3,146.2,61.8,144.7z"/>
	<path fill="#F8DEB8" d="M72.2,171c3.8-2.8,9.1-1.9,11.9,1.9c2.8,3.8,1.9,9.1-1.9,11.9s-9.1,1.9-11.9-1.9
		C67.6,179.1,68.4,173.8,72.2,171z"/>
	<path fill="#F8DEB8" d="M90.2,192.8c2.8-3.8,8.1-4.6,11.9-1.9c3.8,2.8,4.6,8.1,1.9,11.9c-2.8,3.8-8.1,4.6-11.9,1.9
		C88.3,201.9,87.5,196.6,90.2,192.8z"/>
	<path fill="#F8DEB8" d="M114.1,208c1.5-4.5,6.2-6.9,10.7-5.5c4.5,1.5,6.9,6.2,5.5,10.7c-1.5,4.5-6.2,6.9-10.7,5.5
		C115.1,217.2,112.7,212.4,114.1,208z"/>
	<path fill="#F8DEB8" d="M141.5,215c0-4.7,3.8-8.5,8.5-8.5s8.5,3.8,8.5,8.5s-3.8,8.5-8.5,8.5S141.5,219.7,141.5,215z"/>
	<path fill="#F8DEB8" d="M169.7,213.2c-1.5-4.5,1-9.3,5.5-10.7s9.3,1,10.7,5.5s-1,9.3-5.5,10.7S171.2,217.7,169.7,213.2z"/>
	<path fill="#F8DEB8" d="M196,202.8c-2.8-3.8-1.9-9.1,1.9-11.9c3.8-2.8,9.1-1.9,11.9,1.9s1.9,9.1-1.9,11.9S198.8,206.6,196,202.8z"
		/>
	<path fill="#F8DEB8" d="M217.8,184.8c-3.8-2.8-4.6-8.1-1.9-11.9c2.8-3.8,8.1-4.6,11.9-1.9s4.6,8.1,1.9,11.9
		S221.6,187.5,217.8,184.8z"/>
	<path fill="#F8DEB8" d="M233,160.9c-4.5-1.5-6.9-6.2-5.5-10.7s6.2-6.9,10.7-5.5c4.5,1.5,6.9,6.2,5.5,10.7S237.4,162.3,233,160.9z"
		/>
	<path fill="#F8DEB8" d="M240,133.5c-4.7,0-8.5-3.8-8.5-8.5c0-4.7,3.8-8.5,8.5-8.5s8.5,3.8,8.5,8.5
		C248.5,129.7,244.7,133.5,240,133.5z"/>
	<path fill="#F8DEB8" d="M238.2,105.3c-4.5,1.5-9.3-1-10.7-5.5s1-9.3,5.5-10.7c4.5-1.5,9.3,1,10.7,5.5
		C245.1,99,242.7,103.8,238.2,105.3z"/>
	<path fill="#F8DEB8" d="M227.8,79c-3.8,2.8-9.1,1.9-11.9-1.9c-2.8-3.8-1.9-9.1,1.9-11.9c3.8-2.8,9.1-1.9,11.9,1.9
		C232.4,70.9,231.6,76.2,227.8,79z"/>
	<path fill="#F8DEB8" d="M209.8,57.2c-2.8,3.8-8.1,4.6-11.9,1.9c-3.8-2.8-4.6-8.1-1.9-11.9s8.1-4.6,11.9-1.9S212.5,53.4,209.8,57.2z
		"/>
	<path fill="#F8DEB8" d="M185.9,42c-1.5,4.5-6.2,6.9-10.7,5.5c-4.5-1.5-6.9-6.2-5.5-10.7c1.5-4.5,6.2-6.9,10.7-5.5
		S187.3,37.6,185.9,42z"/>
</g>
<g id="brown_circles">
	<path fill="#E49B6A" d="M163.5,11.4c0,7.5-6,13.5-13.5,13.5s-13.5-6-13.5-13.5s6-13.5,13.5-13.5S163.5,4,163.5,11.4z"/>
	<path fill="#E49B6A" d="M127.7,12.8c2.3,7.1-1.6,14.7-8.7,17c-7.1,2.3-14.7-1.6-17-8.7c-2.3-7.1,1.6-14.7,8.7-17
		S125.4,5.7,127.7,12.8z"/>
	<path fill="#E49B6A" d="M94.2,25.2c4.4,6,3,14.5-3,18.9c-6,4.4-14.5,3-18.9-3c-4.4-6-3-14.5,3-18.9C81.3,17.8,89.8,19.1,94.2,25.2z
		"/>
	<path fill="#E49B6A" d="M66,47.3c6,4.4,7.4,12.8,3,18.9c-4.4,6-12.8,7.4-18.9,3s-7.4-12.8-3-18.9S60,42.9,66,47.3z"/>
	<path fill="#E49B6A" d="M46.2,77.1c7.1,2.3,11,9.9,8.7,17c-2.3,7.1-9.9,11-17,8.7c-7.1-2.3-11-9.9-8.7-17S39.1,74.8,46.2,77.1z"/>
	<path fill="#E49B6A" d="M36.4,111.5c7.5,0,13.5,6,13.5,13.5s-6,13.5-13.5,13.5s-13.5-6-13.5-13.5S29,111.5,36.4,111.5z"/>
	<path fill="#E49B6A" d="M37.8,147.3c7.1-2.3,14.7,1.6,17,8.7s-1.6,14.7-8.7,17s-14.7-1.6-17-8.7C26.8,157.2,30.7,149.6,37.8,147.3z
		"/>
	<path fill="#E49B6A" d="M50.2,180.8c6-4.4,14.5-3,18.9,3s3,14.5-3,18.9c-6,4.4-14.5,3-18.9-3S44.1,185.2,50.2,180.8z"/>
	<path fill="#E49B6A" d="M72.3,209c4.4-6,12.8-7.4,18.9-3c6,4.4,7.4,12.8,3,18.9s-12.8,7.4-18.9,3C69.3,223.4,67.9,215,72.3,209z"/>
	<path fill="#E49B6A" d="M102.1,228.8c2.3-7.1,9.9-11,17-8.7c7.1,2.3,11,9.9,8.7,17s-9.9,11-17,8.7
		C103.6,243.6,99.8,235.9,102.1,228.8z"/>
	<path fill="#E49B6A" d="M136.5,238.6c0-7.5,6-13.5,13.5-13.5s13.5,6,13.5,13.5c0,7.5-6,13.5-13.5,13.5S136.5,246,136.5,238.6z"/>
	<path fill="#E49B6A" d="M172.3,237.2c-2.3-7.1,1.6-14.7,8.7-17s14.7,1.6,17,8.7s-1.6,14.7-8.7,17
		C182.2,248.2,174.6,244.3,172.3,237.2z"/>
	<path fill="#E49B6A" d="M205.8,224.8c-4.4-6-3-14.5,3-18.9s14.5-3,18.9,3c4.4,6,3,14.5-3,18.9S210.2,230.9,205.8,224.8z"/>
	<path fill="#E49B6A" d="M234,202.7c-6-4.4-7.4-12.8-3-18.9s12.8-7.4,18.9-3c6,4.4,7.4,12.8,3,18.9S240,207.1,234,202.7z"/>
	<path fill="#E49B6A" d="M253.8,172.9c-7.1-2.3-11-9.9-8.7-17s9.9-11,17-8.7c7.1,2.3,11,9.9,8.7,17
		C268.6,171.4,260.9,175.2,253.8,172.9z"/>
	<path fill="#E49B6A" d="M263.6,138.5c-7.5,0-13.5-6-13.5-13.5s6-13.5,13.5-13.5s13.5,6,13.5,13.5S271,138.5,263.6,138.5z"/>
	<path fill="#E49B6A" d="M262.2,102.7c-7.1,2.3-14.7-1.6-17-8.7c-2.3-7.1,1.6-14.7,8.7-17c7.1-2.3,14.7,1.6,17,8.7
		S269.3,100.4,262.2,102.7z"/>
	<path fill="#E49B6A" d="M249.8,69.2c-6,4.4-14.5,3-18.9-3c-4.4-6-3-14.5,3-18.9s14.5-3,18.9,3S255.9,64.8,249.8,69.2z"/>
	<path fill="#E49B6A" d="M227.7,41c-4.4,6-12.8,7.4-18.9,3s-7.4-12.8-3-18.9c4.4-6,12.8-7.4,18.9-3S232.1,35,227.7,41z"/>
	<path fill="#E49B6A" d="M197.9,21.2c-2.3,7.1-9.9,11-17,8.7s-11-9.9-8.7-17s9.9-11,17-8.7C196.4,6.4,200.2,14.1,197.9,21.2z"/>
</g>
<g id="pink_circles">
	<path fill="#EC5FCF" d="M167.5-21.5c0,9.7-7.8,17.5-17.5,17.5s-17.5-7.8-17.5-17.5S140.3-39,150-39S167.5-31.2,167.5-21.5z"/>
	<path fill="#EC5FCF" d="M121.4-19.7c3,9.2-2,19.1-11.2,22.1s-19.1-2-22.1-11.2c-3-9.2,2-19.1,11.2-22.1S118.4-28.9,121.4-19.7z"/>
	<path fill="#EC5FCF" d="M78-3.8C83.7,4,82,15,74.2,20.6s-18.8,3.9-24.4-3.9S45.8-2,53.6-7.7S72.4-11.6,78-3.8z"/>
	<path fill="#EC5FCF" d="M41.8,24.7c7.8,5.7,9.6,16.6,3.9,24.4S29,58.7,21.2,53s-9.6-16.6-3.9-24.4S33.9,19.1,41.8,24.7z"/>
	<path fill="#EC5FCF" d="M16.1,63.1c9.2,3,14.2,12.9,11.2,22.1S14.5,99.4,5.3,96.4C-3.9,93.4-9,83.5-6,74.3S6.9,60.1,16.1,63.1z"/>
	<path fill="#EC5FCF" d="M3.5,107.5c9.7,0,17.5,7.8,17.5,17.5s-7.8,17.5-17.5,17.5S-14,134.7-14,125S-6.2,107.5,3.5,107.5z"/>
	<path fill="#EC5FCF" d="M5.3,153.6c9.2-3,19.1,2,22.1,11.2s-2,19.1-11.2,22.1c-9.2,3-19.1-2-22.1-11.2S-3.9,156.6,5.3,153.6z"/>
	<path fill="#EC5FCF" d="M21.2,197c7.8-5.7,18.8-3.9,24.4,3.9s3.9,18.8-3.9,24.4c-7.8,5.7-18.8,3.9-24.4-3.9
		C11.6,213.6,13.4,202.6,21.2,197z"/>
	<path fill="#EC5FCF" d="M49.7,233.2c5.7-7.8,16.6-9.6,24.4-3.9s9.6,16.6,3.9,24.4c-5.7,7.8-16.6,9.6-24.4,3.9
		C45.8,252,44.1,241.1,49.7,233.2z"/>
	<path fill="#EC5FCF" d="M88.1,258.9c3-9.2,12.9-14.2,22.1-11.2c9.2,3,14.2,12.9,11.2,22.1c-3,9.2-12.9,14.2-22.1,11.2
		S85.1,268.1,88.1,258.9z"/>
	<path fill="#EC5FCF" d="M132.5,271.5c0-9.7,7.8-17.5,17.5-17.5s17.5,7.8,17.5,17.5S159.7,289,150,289S132.5,281.2,132.5,271.5z"/>
	<path fill="#EC5FCF" d="M178.6,269.7c-3-9.2,2-19.1,11.2-22.1c9.2-3,19.1,2,22.1,11.2c3,9.2-2,19.1-11.2,22.1
		S181.6,278.9,178.6,269.7z"/>
	<path fill="#EC5FCF" d="M222,253.8c-5.7-7.8-3.9-18.8,3.9-24.4s18.8-3.9,24.4,3.9c5.7,7.8,3.9,18.8-3.9,24.4
		C238.6,263.4,227.6,261.6,222,253.8z"/>
	<path fill="#EC5FCF" d="M258.2,225.3c-7.8-5.7-9.6-16.6-3.9-24.4s16.6-9.6,24.4-3.9c7.8,5.7,9.6,16.6,3.9,24.4
		C277,229.2,266.1,230.9,258.2,225.3z"/>
	<path fill="#EC5FCF" d="M283.9,186.9c-9.2-3-14.2-12.9-11.2-22.1c3-9.2,12.9-14.2,22.1-11.2s14.2,12.9,11.2,22.1
		S293.1,189.9,283.9,186.9z"/>
	<path fill="#EC5FCF" d="M296.5,142.5c-9.7,0-17.5-7.8-17.5-17.5s7.8-17.5,17.5-17.5S314,115.3,314,125S306.2,142.5,296.5,142.5z"/>
	<path fill="#EC5FCF" d="M294.7,96.4c-9.2,3-19.1-2-22.1-11.2c-3-9.2,2-19.1,11.2-22.1c9.2-3,19.1,2,22.1,11.2
		S303.9,93.4,294.7,96.4z"/>
	<path fill="#EC5FCF" d="M278.8,53c-7.8,5.7-18.8,3.9-24.4-3.9s-3.9-18.8,3.9-24.4c7.8-5.7,18.8-3.9,24.4,3.9
		C288.4,36.4,286.6,47.4,278.8,53z"/>
	<path fill="#EC5FCF" d="M250.3,16.8c-5.7,7.8-16.6,9.6-24.4,3.9S216.3,4,222-3.8s16.6-9.6,24.4-3.9C254.2-2,255.9,8.9,250.3,16.8z"
		/>
	<path fill="#EC5FCF" d="M211.9-8.9c-3,9.2-12.9,14.2-22.1,11.2s-14.2-12.9-11.2-22.1S191.5-34,200.7-31S214.9-18.1,211.9-8.9z"/>
</g>
<g id="orange_circles">
	<path fill="#E15F05" d="M172.5-63.5c0,12.4-10.1,22.5-22.5,22.5s-22.5-10.1-22.5-22.5S137.6-86,150-86S172.5-75.9,172.5-63.5z"/>
	<path fill="#E15F05" d="M113.1-61.2c3.8,11.8-2.6,24.5-14.4,28.4s-24.5-2.6-28.4-14.4S73-71.8,84.8-75.7
		C96.6-79.5,109.3-73,113.1-61.2z"/>
	<path fill="#E15F05" d="M57.4-40.7c7.3,10.1,5.1,24.1-5,31.4s-24.1,5.1-31.4-5s-5.1-24.1,5-31.4S50.1-50.8,57.4-40.7z"/>
	<path fill="#E15F05" d="M10.7-4c10.1,7.3,12.3,21.4,5,31.4s-21.4,12.3-31.4,5S-28,11-20.7,1S0.7-11.3,10.7-4z"/>
	<path fill="#E15F05" d="M-22.3,45.4C-10.5,49.2-4,61.9-7.9,73.7S-24.4,92-36.2,88.1C-48,84.3-54.5,71.6-50.7,59.8
		S-34.1,41.5-22.3,45.4z"/>
	<path fill="#E15F05" d="M-38.5,102.5c12.4,0,22.5,10.1,22.5,22.5s-10.1,22.5-22.5,22.5S-61,137.4-61,125S-50.9,102.5-38.5,102.5z"
		/>
	<path fill="#E15F05" d="M-36.2,161.9c11.8-3.8,24.5,2.6,28.4,14.4c3.8,11.8-2.6,24.5-14.4,28.4c-11.8,3.8-24.5-2.6-28.4-14.4
		C-54.5,178.4-48,165.7-36.2,161.9z"/>
	<path fill="#E15F05" d="M-15.7,217.6c10.1-7.3,24.1-5.1,31.4,5c7.3,10.1,5.1,24.1-5,31.4c-10.1,7.3-24.1,5.1-31.4-5
		S-25.8,224.9-15.7,217.6z"/>
	<path fill="#E15F05" d="M21,264.3c7.3-10.1,21.4-12.3,31.4-5c10.1,7.3,12.3,21.4,5,31.4c-7.3,10.1-21.4,12.3-31.4,5
		C15.9,288.4,13.7,274.3,21,264.3z"/>
	<path fill="#E15F05" d="M70.4,297.3c3.8-11.8,16.5-18.3,28.4-14.4c11.8,3.8,18.3,16.5,14.4,28.4c-3.8,11.8-16.5,18.3-28.4,14.4
		C73,321.8,66.5,309.1,70.4,297.3z"/>
	<path fill="#E15F05" d="M127.5,313.5c0-12.4,10.1-22.5,22.5-22.5s22.5,10.1,22.5,22.5S162.4,336,150,336S127.5,325.9,127.5,313.5z"
		/>
	<path fill="#E15F05" d="M186.9,311.2c-3.8-11.8,2.6-24.5,14.4-28.4c11.8-3.8,24.5,2.6,28.4,14.4c3.8,11.8-2.6,24.5-14.4,28.4
		C203.4,329.5,190.7,323,186.9,311.2z"/>
	<path fill="#E15F05" d="M242.6,290.7c-7.3-10.1-5.1-24.1,5-31.4c10.1-7.3,24.1-5.1,31.4,5c7.3,10.1,5.1,24.1-5,31.4
		C264,303,249.9,300.8,242.6,290.7z"/>
	<path fill="#E15F05" d="M289.3,254c-10.1-7.3-12.3-21.4-5-31.4c7.3-10.1,21.4-12.3,31.4-5c10.1,7.3,12.3,21.4,5,31.4
		C313.4,259.1,299.3,261.3,289.3,254z"/>
	<path fill="#E15F05" d="M322.3,204.6c-11.8-3.8-18.3-16.5-14.4-28.4c3.8-11.8,16.5-18.3,28.4-14.4c11.8,3.8,18.3,16.5,14.4,28.4
		C346.8,202,334.1,208.5,322.3,204.6z"/>
	<path fill="#E15F05" d="M338.5,147.5c-12.4,0-22.5-10.1-22.5-22.5s10.1-22.5,22.5-22.5S361,112.6,361,125S350.9,147.5,338.5,147.5z
		"/>
	<path fill="#E15F05" d="M336.2,88.1c-11.8,3.8-24.5-2.6-28.4-14.4c-3.8-11.8,2.6-24.5,14.4-28.4c11.8-3.8,24.5,2.6,28.4,14.4
		C354.5,71.6,348,84.3,336.2,88.1z"/>
	<path fill="#E15F05" d="M315.7,32.4c-10.1,7.3-24.1,5.1-31.4-5c-7.3-10.1-5.1-24.1,5-31.4s24.1-5.1,31.4,5
		C328,11,325.8,25.1,315.7,32.4z"/>
	<path fill="#E15F05" d="M279-14.3c-7.3,10.1-21.4,12.3-31.4,5c-10.1-7.3-12.3-21.4-5-31.4S264-53,274-45.7
		C284.1-38.4,286.3-24.3,279-14.3z"/>
	<path fill="#E15F05" d="M229.6-47.3c-3.8,11.8-16.5,18.3-28.4,14.4c-11.8-3.8-18.3-16.5-14.4-28.4c3.8-11.8,16.5-18.3,28.4-14.4
		C227-71.8,233.5-59.1,229.6-47.3z"/>
</g>
</svg>
