<?xml version="1.0" encoding="utf-8"?>
<!-- Generator: Adobe Illustrator 20.1.0, SVG Export Plug-In . SVG Version: 6.00 Build 0)  -->
<svg version="1.1" id="Layer_1" xmlns="http://www.w3.org/2000/svg" xmlns:xlink="http://www.w3.org/1999/xlink" x="0px" y="0px"
	 viewBox="0 0 300 250" enable-background="new 0 0 300 250" xml:space="preserve">
<path d="M22.9,198.9l1.2-5.5l1.2,5.5h1.8l2.3-8.6h-1.8l-1.4,5.6l-1.2-5.6h-1.8L22,196l-1.3-5.6h-1.8l2.2,8.6H22.9z M32.4,198.9
	l-2.2-8.6h1.8l1.3,5.6l1.2-5.6h1.8l1.2,5.6l1.4-5.6h1.8l-2.3,8.6h-1.8l-1.2-5.5l-1.2,5.5H32.4z M43.6,198.9l-2.2-8.6h1.8l1.3,5.6
	l1.2-5.6h1.8l1.2,5.6l1.4-5.6h1.8l-2.3,8.6h-1.8l-1.2-5.5l-1.2,5.5H43.6z M53,198.9v-2.3h1.9v2.3H53z M63.5,195c0-1.7-0.3-2.9-1-3.8
	c-0.6-0.7-1.4-1.1-2.4-1.1c-0.9,0-1.6,0.4-2.2,1.1c-0.7,0.9-1,2-1,3.4c0,1.5,0.3,2.6,1,3.4c0.6,0.7,1.4,1,2.4,1
	c0.7,0,1.4-0.2,1.9-0.6c0.5-0.4,0.9-1.1,1.2-1.9l-1.9-0.4c-0.2,0.8-0.6,1.2-1.2,1.2c-0.4,0-0.8-0.2-1.1-0.6
	c-0.3-0.4-0.4-0.9-0.5-1.6h4.7L63.5,195z M58.8,193.9c0-0.6,0.1-1.1,0.4-1.5c0.3-0.4,0.6-0.5,1-0.5c0.4,0,0.7,0.2,1,0.5
	c0.3,0.3,0.4,0.8,0.4,1.5H58.8z M71.4,197.8c-0.1-0.4-0.1-0.9-0.1-1.7l0-2.7c0-1-0.1-1.7-0.3-2.1c-0.2-0.4-0.5-0.7-0.9-0.9
	c-0.4-0.2-1-0.3-1.8-0.3c-0.9,0-1.6,0.2-2,0.6c-0.5,0.4-0.8,1-1,1.9l1.7,0.4c0.1-0.4,0.3-0.7,0.5-0.8c0.2-0.2,0.5-0.2,0.8-0.2
	c0.3,0,0.6,0,0.8,0.1c0.2,0.1,0.3,0.2,0.4,0.4c0.1,0.1,0.1,0.5,0.1,0.9c-0.3,0.2-0.9,0.4-1.8,0.6c-0.7,0.2-1.2,0.4-1.6,0.6
	c-0.3,0.2-0.6,0.5-0.8,0.9c-0.2,0.4-0.3,0.8-0.3,1.3c0,0.8,0.2,1.4,0.7,1.8c0.4,0.5,1,0.7,1.7,0.7c0.4,0,0.8-0.1,1.2-0.3
	s0.7-0.5,1-0.9l0.2,0.9h1.8C71.6,198.5,71.5,198.1,71.4,197.8z M69.5,195.2c0,0.7,0,1.1-0.1,1.4c-0.1,0.2-0.3,0.5-0.5,0.6
	c-0.3,0.2-0.5,0.3-0.8,0.3c-0.3,0-0.5-0.1-0.7-0.3c-0.2-0.2-0.3-0.5-0.3-0.8c0-0.3,0.1-0.5,0.3-0.7c0.2-0.2,0.6-0.4,1.1-0.5
	c0.5-0.1,0.9-0.2,1.1-0.3V195.2z M73.2,196.5l1.9-0.3c0.2,0.9,0.7,1.3,1.5,1.3c0.4,0,0.8-0.1,1-0.3c0.2-0.2,0.3-0.4,0.3-0.7
	c0-0.2,0-0.3-0.1-0.4c-0.1-0.1-0.3-0.2-0.6-0.3c-1.5-0.4-2.5-0.8-2.9-1.2c-0.5-0.5-0.8-1.1-0.8-1.9c0-0.8,0.3-1.4,0.8-1.9
	c0.5-0.5,1.2-0.7,2.2-0.7c0.9,0,1.6,0.2,2.1,0.5c0.5,0.4,0.8,0.9,1,1.7l-1.8,0.4c-0.2-0.7-0.6-1-1.3-1c-0.5,0-0.8,0.1-1,0.2
	c-0.2,0.1-0.3,0.3-0.3,0.5c0,0.2,0.1,0.3,0.3,0.5c0.2,0.1,0.7,0.3,1.7,0.6c1,0.3,1.7,0.6,2.1,1.1c0.4,0.4,0.6,1,0.6,1.7
	c0,0.8-0.3,1.5-0.9,2.1c-0.6,0.5-1.4,0.8-2.4,0.8c-0.9,0-1.7-0.2-2.2-0.7C73.8,198,73.4,197.3,73.2,196.5z M85.3,190.3v1.8H84v3.5
	c0,0.8,0,1.2,0.1,1.3c0.1,0.2,0.2,0.3,0.5,0.3c0.2,0,0.4-0.1,0.7-0.2l0.2,1.8c-0.4,0.2-0.9,0.3-1.5,0.3c-0.5,0-0.9-0.1-1.1-0.3
	c-0.3-0.2-0.5-0.6-0.6-1c-0.1-0.3-0.1-0.9-0.1-1.9v-3.7h-0.9v-1.8h0.9v-1.7l1.9-1.3v3H85.3z M86.6,196.5l1.9-0.3
	c0.2,0.9,0.7,1.3,1.5,1.3c0.4,0,0.8-0.1,1-0.3c0.2-0.2,0.3-0.4,0.3-0.7c0-0.2,0-0.3-0.1-0.4c-0.1-0.1-0.3-0.2-0.6-0.3
	c-1.5-0.4-2.5-0.8-2.9-1.2c-0.5-0.5-0.8-1.1-0.8-1.9c0-0.8,0.3-1.4,0.8-1.9c0.5-0.5,1.2-0.7,2.2-0.7c0.9,0,1.6,0.2,2.1,0.5
	c0.5,0.4,0.8,0.9,1,1.7l-1.8,0.4c-0.2-0.7-0.6-1-1.3-1c-0.5,0-0.8,0.1-1,0.2c-0.2,0.1-0.3,0.3-0.3,0.5c0,0.2,0.1,0.3,0.3,0.5
	c0.2,0.1,0.7,0.3,1.7,0.6c1,0.3,1.7,0.6,2.1,1.1c0.4,0.4,0.6,1,0.6,1.7c0,0.8-0.3,1.5-0.9,2.1c-0.6,0.5-1.4,0.8-2.4,0.8
	c-0.9,0-1.7-0.2-2.2-0.7C87.1,198,86.8,197.3,86.6,196.5z M95.4,189.2v-2.1h1.9v2.1H95.4z M97.3,198.9v-8.6h-1.9v8.6H97.3z
	 M104.5,187.1v4.3c-0.3-0.4-0.6-0.7-0.9-0.9c-0.3-0.2-0.7-0.3-1.1-0.3c-0.8,0-1.5,0.4-2.1,1.1c-0.6,0.7-0.9,1.9-0.9,3.3
	c0,1.5,0.3,2.6,0.9,3.4c0.6,0.8,1.3,1.2,2.1,1.2c0.4,0,0.8-0.1,1.2-0.4c0.4-0.2,0.7-0.6,1-1.1v1.3h1.7v-11.8H104.5z M104,196.7
	c-0.3,0.4-0.7,0.7-1.1,0.7c-0.3,0-0.6-0.1-0.8-0.3c-0.2-0.2-0.4-0.5-0.6-0.9c-0.1-0.4-0.2-1-0.2-1.7c0-0.9,0.2-1.5,0.5-1.9
	c0.3-0.4,0.7-0.6,1.1-0.6c0.5,0,0.8,0.2,1.1,0.7c0.3,0.4,0.4,1.1,0.4,2.1C104.5,195.5,104.3,196.2,104,196.7z M114.9,195
	c0-1.7-0.3-2.9-1-3.8c-0.6-0.7-1.4-1.1-2.4-1.1c-0.9,0-1.6,0.4-2.2,1.1c-0.7,0.9-1,2-1,3.4c0,1.5,0.3,2.6,1,3.4c0.6,0.7,1.4,1,2.4,1
	c0.7,0,1.4-0.2,1.9-0.6c0.5-0.4,0.9-1.1,1.2-1.9l-1.9-0.4c-0.2,0.8-0.6,1.2-1.2,1.2c-0.4,0-0.8-0.2-1.1-0.6
	c-0.3-0.4-0.4-0.9-0.5-1.6h4.7L114.9,195z M110.2,193.9c0-0.6,0.1-1.1,0.4-1.5c0.3-0.4,0.6-0.5,1-0.5c0.4,0,0.7,0.2,1,0.5
	c0.3,0.3,0.4,0.8,0.4,1.5H110.2z M117,198.9v-2.3h1.9v2.3H117z M120.8,196.5l1.9-0.3c0.2,0.9,0.7,1.3,1.5,1.3c0.4,0,0.8-0.1,1-0.3
	c0.2-0.2,0.3-0.4,0.3-0.7c0-0.2,0-0.3-0.1-0.4c-0.1-0.1-0.3-0.2-0.6-0.3c-1.5-0.4-2.5-0.8-2.9-1.2c-0.5-0.5-0.8-1.1-0.8-1.9
	c0-0.8,0.3-1.4,0.8-1.9c0.5-0.5,1.2-0.7,2.2-0.7c0.9,0,1.6,0.2,2.1,0.5c0.5,0.4,0.8,0.9,1,1.7l-1.8,0.4c-0.2-0.7-0.6-1-1.3-1
	c-0.5,0-0.8,0.1-1,0.2c-0.2,0.1-0.3,0.3-0.3,0.5c0,0.2,0.1,0.3,0.3,0.5c0.2,0.1,0.7,0.3,1.7,0.6c1,0.3,1.7,0.6,2.1,1.1
	c0.4,0.4,0.6,1,0.6,1.7c0,0.8-0.3,1.5-0.9,2.1c-0.6,0.5-1.4,0.8-2.4,0.8c-0.9,0-1.7-0.2-2.2-0.7C121.4,198,121,197.3,120.8,196.5z
	 M134.4,190.3v1.2c-0.3-0.5-0.6-0.8-1-1.1c-0.4-0.2-0.8-0.4-1.2-0.4c-0.8,0-1.5,0.4-2.1,1.1c-0.6,0.7-0.9,1.9-0.9,3.3
	c0,1.4,0.3,2.5,0.9,3.3c0.5,0.7,1.2,1.1,2,1.1c0.4,0,0.8-0.1,1.2-0.3c0.4-0.2,0.7-0.6,0.9-1v1.3c0,0.6,0,1-0.1,1.2
	c-0.1,0.2-0.2,0.4-0.4,0.5c-0.3,0.1-0.6,0.2-1,0.2c-0.4,0-0.6-0.1-0.8-0.2c-0.2-0.1-0.3-0.4-0.3-0.7l-2.1-0.3v0.3
	c0,0.5,0.1,1,0.4,1.4c0.2,0.4,0.6,0.7,1.1,0.9c0.5,0.2,1.1,0.3,1.9,0.3c0.8,0,1.5-0.1,2-0.4c0.5-0.3,0.8-0.7,1-1.3
	c0.2-0.6,0.3-1.4,0.3-2.7v-7.7H134.4z M133.8,196.4c-0.3,0.4-0.7,0.6-1.1,0.6c-0.4,0-0.8-0.2-1.1-0.6c-0.3-0.4-0.4-1.1-0.4-2
	c0-0.9,0.1-1.5,0.4-1.9c0.3-0.4,0.7-0.6,1.1-0.6c0.4,0,0.8,0.2,1.1,0.6c0.3,0.4,0.5,1.1,0.5,2C134.3,195.4,134.1,196,133.8,196.4z"
	/>
<path d="M28.2,73.9h2.9V63.7h-7.9V66l4.5,0.1v0.1c0,1.5-0.4,2.7-1.3,3.5c-0.8,0.8-1.9,1.3-3.2,1.3c-1.5,0-2.7-0.6-3.7-1.9
	c-0.9-1.3-1.4-3-1.4-5c0-2.2,0.5-3.9,1.6-5.2c1-1.3,2.3-1.9,3.8-1.9c1.6,0,3,0.9,4.1,2.6l3.7-0.9c-0.7-1.7-1.7-3-2.9-3.8
	c-1.3-0.8-2.8-1.2-4.7-1.2c-2.7,0-5,0.9-6.7,2.8c-1.8,1.9-2.7,4.5-2.7,7.6c0,3,0.8,5.5,2.5,7.4c1.6,1.9,3.7,2.8,6.1,2.8
	c2.4,0,4.1-1.2,4.9-3.6L28.2,73.9z M35.2,54.1H48v3.1h-9.2v5.2h8.6v3.1h-8.6v5.2H48v3.1H35.2V54.1z M49.3,54.1h15.9v3.1h-6.1v16.7
	h-3.6V57.2h-6.1V54.1z M75.6,54.1L80,62l4.6-7.9h4.2l-7.1,11.6v8.2h-3.6v-8.2l-6.8-11.6H75.6z M105.1,56.3c-0.8-0.9-1.7-1.5-2.8-1.9
	c-1.1-0.4-2.3-0.7-3.6-0.7c-2.8,0-4.9,0.8-6.5,2.5c-1.7,1.8-2.5,4.4-2.5,7.8c0,3.3,0.8,5.9,2.5,7.7c1.6,1.8,3.7,2.6,6.5,2.6
	c2.7,0,4.9-0.9,6.5-2.6c1.7-1.8,2.5-4.4,2.5-7.8C107.6,60.6,106.8,58.1,105.1,56.3z M102.5,69.3c-0.9,1.2-2.2,1.8-3.8,1.8
	c-1.6,0-2.9-0.6-3.8-1.8c-1-1.2-1.4-3-1.4-5.2c0-2.3,0.5-4,1.4-5.3c1-1.2,2.2-1.8,3.8-1.8c1.6,0,2.9,0.6,3.8,1.8
	c0.9,1.2,1.4,3,1.4,5.3C103.9,66.3,103.4,68,102.5,69.3z M114.1,54.1v12.3c0,1.6,0.4,2.8,1.2,3.5c0.8,0.7,1.9,1.1,3.2,1.1
	c1.3,0,2.4-0.4,3.2-1.1c0.8-0.7,1.2-1.9,1.2-3.5V54.1h3.6v12.3c0,2.5-0.7,4.5-2.1,5.9c-1.4,1.4-3.4,2.1-5.9,2.1
	c-2.5,0-4.5-0.7-5.9-2.1c-1.4-1.4-2.1-3.3-2.1-5.9V54.1H114.1z M140.8,65.8c1.5-0.4,2.6-1.1,3.4-2.1c0.8-1,1.2-2.2,1.2-3.6
	c0-1.9-0.6-3.3-1.9-4.4c-1.3-1.1-3.1-1.7-5.5-1.7h-7.3v19.8h3.6v-7.7h2.7l4.4,7.7h4.7L140.8,65.8z M137.7,63.8h-3.4v-6.6h3.7
	c1.2,0,2.1,0.3,2.7,0.9c0.6,0.6,0.9,1.4,0.9,2.4c0,1-0.3,1.8-1,2.4C140,63.5,139,63.8,137.7,63.8z"/>
<path fill="#CD6AA9" d="M155.9,73.9h3.6v-8.4h8.1v-3.1h-8.1v-5.2h8.9v-3.1h-12.5V73.9z M181.6,65.8c1.5-0.4,2.6-1.1,3.4-2.1
	c0.8-1,1.2-2.2,1.2-3.6c0-1.9-0.6-3.3-1.9-4.4c-1.3-1.1-3.1-1.7-5.5-1.7h-7.3v19.8h3.6v-7.7h2.7l4.4,7.7h4.7L181.6,65.8z
	 M178.4,63.8h-3.4v-6.6h3.7c1.2,0,2.1,0.3,2.7,0.9c0.6,0.6,0.9,1.4,0.9,2.4c0,1-0.3,1.8-1,2.4C180.8,63.5,179.8,63.8,178.4,63.8z
	 M190,54.1h12.8v3.1h-9.2v5.2h8.6v3.1h-8.6v5.2h9.2v3.1H190V54.1z M206.7,54.1h12.8v3.1h-9.2v5.2h8.6v3.1h-8.6v5.2h9.2v3.1h-12.8
	V54.1z"/>
<path d="M15.9,110.8c-1.3,1.5-1.9,3.5-1.9,6.1c0,2.6,0.6,4.6,1.9,6.1c1.2,1.5,2.9,2.2,5,2.2c2,0,3.5-0.5,4.7-1.5
	c1.1-1,1.7-2.4,1.7-4.1h-3.1c0,0.9-0.3,1.6-0.9,2.1c-0.6,0.5-1.4,0.8-2.6,0.8c-1.1,0-2-0.5-2.7-1.5c-0.7-1-1-2.4-1-4.2
	c0-1.8,0.4-3.2,1.1-4.2c0.7-0.9,1.6-1.4,2.7-1.4c0.8,0,1.5,0.3,2,0.8c0.5,0.5,1,1.2,1.2,2l3.1-0.6c-0.3-1.5-1-2.7-2-3.5
	c-0.5-0.4-1.1-0.8-1.9-1c-0.7-0.2-1.6-0.4-2.6-0.4C18.8,108.7,17.2,109.4,15.9,110.8L15.9,110.8z M41.1,110.7
	c-0.6-0.7-1.4-1.2-2.3-1.6c-0.9-0.4-1.9-0.5-2.9-0.5c-2.2,0-4,0.7-5.2,2c-1.3,1.4-2,3.5-2,6.2c0,2.7,0.7,4.8,2,6.2
	c1.3,1.4,3,2.1,5.2,2.1c2.2,0,4-0.7,5.2-2.1c1.3-1.5,2-3.6,2-6.3C43.1,114.2,42.4,112.2,41.1,110.7z M39,121.2
	c-0.8,1-1.8,1.5-3.1,1.5c-1.3,0-2.3-0.5-3.1-1.5c-0.8-1-1.2-2.4-1.2-4.2c0-1.8,0.4-3.2,1.2-4.2c0.8-1,1.8-1.5,3.1-1.5
	c1.3,0,2.3,0.5,3.1,1.5c0.8,1,1.1,2.4,1.1,4.2C40.1,118.8,39.7,120.2,39,121.2z M45.6,109h10v2.5h-7.1v4.2h6.5v2.5h-6.5v6.8h-2.9
	V109z M58.2,109h10v2.5h-7.1v4.2h6.5v2.5h-6.5v6.8h-2.9V109z M70.6,109h10.3v2.5h-7.4v4.2h6.9v2.5h-6.9v4.2h7.4v2.5H70.6V109z
	 M84.1,109h10.3v2.5H87v4.2h6.9v2.5H87v4.2h7.4v2.5H84.1V109z M96.7,110.6c0-0.5,0.2-0.9,0.6-1.2c0.4-0.3,0.9-0.5,1.5-0.5
	c0.6,0,1.2,0.3,1.6,0.8c0.4,0.5,0.6,1.2,0.6,1.9c0,0.8-0.3,1.5-0.8,2.2c-0.5,0.7-1.2,1.3-2.1,1.8l-2-1.1c1.3-0.6,2-1.4,2.3-2.2
	c-0.5-0.1-0.9-0.3-1.2-0.5C96.8,111.5,96.7,111.1,96.7,110.6z M111.7,113.4c-0.3-1.4-1.2-2.1-2.9-2.1c-0.8,0-1.5,0.2-2,0.5
	c-0.5,0.3-0.7,0.7-0.7,1.2c0,0.5,0.2,0.8,0.5,1.1c0.3,0.3,0.8,0.5,1.4,0.7l3.5,1.4c1.2,0.5,2.1,1,2.7,1.7c0.6,0.7,1,1.6,1,2.6
	c0,1.4-0.5,2.6-1.6,3.4c-1.1,0.8-2.6,1.3-4.6,1.3c-1.8,0-3.2-0.4-4.3-1.3c-1.2-0.9-1.9-2.3-1.9-4h2.9c0,1.3,0.7,2.1,2,2.5
	c0.4,0.1,0.9,0.2,1.6,0.2c0.7,0,1.3-0.2,1.9-0.5c0.6-0.3,0.9-0.8,0.9-1.4c0-0.6-0.2-1-0.5-1.3c-0.3-0.3-0.8-0.6-1.5-0.8l-3.2-1.3
	c-1.2-0.5-2.2-1-2.8-1.7c-0.7-0.6-1-1.5-1-2.7c0-1.3,0.5-2.4,1.5-3.1c1-0.8,2.5-1.2,4.3-1.2c1.8,0,3.2,0.4,4.1,1.2
	c1,0.8,1.5,2,1.7,3.5H111.7z M134.7,110.7c-0.6-0.7-1.4-1.2-2.3-1.6c-0.9-0.4-1.9-0.5-2.9-0.5c-2.2,0-4,0.7-5.2,2
	c-1.3,1.4-2,3.5-2,6.2c0,2.7,0.7,4.8,2,6.2c1.3,1.4,3,2.1,5.2,2.1c2.2,0,4-0.7,5.2-2.1c1.3-1.5,2-3.6,2-6.3
	C136.8,114.2,136.1,112.2,134.7,110.7z M132.6,121.2c-0.8,1-1.8,1.5-3.1,1.5c-1.3,0-2.3-0.5-3.1-1.5c-0.8-1-1.2-2.4-1.2-4.2
	c0-1.8,0.4-3.2,1.2-4.2c0.8-1,1.8-1.5,3.1-1.5c1.3,0,2.3,0.5,3.1,1.5c0.8,1,1.1,2.4,1.1,4.2C133.8,118.8,133.4,120.2,132.6,121.2z
	 M142.4,109l7,11.3V109h2.9v15.9h-2.9l-7.2-11.7v11.7h-2.9V109H142.4z M163.9,109v9.9c0,1.3,0.3,2.3,1,2.8c0.7,0.6,1.5,0.9,2.6,0.9
	c1,0,1.9-0.3,2.6-0.9c0.7-0.6,1-1.5,1-2.8V109h2.9v9.9c0,2-0.6,3.6-1.7,4.7c-1.1,1.1-2.7,1.7-4.8,1.7c-2,0-3.6-0.6-4.8-1.7
	c-1.1-1.1-1.7-2.7-1.7-4.7V109H163.9z M185.7,113.4c-0.3-1.4-1.2-2.1-2.9-2.1c-0.8,0-1.5,0.2-2,0.5c-0.5,0.3-0.7,0.7-0.7,1.2
	c0,0.5,0.2,0.8,0.5,1.1c0.3,0.3,0.8,0.5,1.4,0.7l3.5,1.4c1.2,0.5,2.1,1,2.7,1.7c0.6,0.7,1,1.6,1,2.6c0,1.4-0.5,2.6-1.6,3.4
	c-1.1,0.8-2.6,1.3-4.6,1.3c-1.8,0-3.2-0.4-4.3-1.3c-1.2-0.9-1.9-2.3-1.9-4h2.9c0,1.3,0.7,2.1,2,2.5c0.4,0.1,0.9,0.2,1.6,0.2
	c0.7,0,1.3-0.2,1.9-0.5c0.6-0.3,0.9-0.8,0.9-1.4c0-0.6-0.2-1-0.5-1.3c-0.3-0.3-0.8-0.6-1.5-0.8l-3.2-1.3c-1.2-0.5-2.2-1-2.8-1.7
	c-0.7-0.6-1-1.5-1-2.7c0-1.3,0.5-2.4,1.5-3.1c1-0.8,2.5-1.2,4.3-1.2c1.8,0,3.2,0.4,4.1,1.2c1,0.8,1.5,2,1.7,3.5H185.7z"/>
<path d="M15.2,84.9l3.9,12h2.3l2.2-6.8l2.3,6.8h2.3l4.1-12h-2.5l-2.8,9.2l-2.7-8.4h-1.5L20.3,94l-2.7-9.1H15.2z M34.1,96.9h7.8V95
	h-5.6v-3.2h5.2v-1.9h-5.2v-3.2h5.6v-1.9h-7.8V96.9z M53.1,91.7c-0.4-0.5-1-0.8-1.7-0.9c0.7-0.2,1.2-0.5,1.6-1
	c0.4-0.5,0.6-1.1,0.6-1.7c0-0.9-0.3-1.7-1-2.2c-0.7-0.6-1.8-0.9-3.1-0.9h-4.9v12h4.9c0.9,0,1.6-0.1,2.1-0.3c1.5-0.5,2.2-1.6,2.2-3
	C53.8,92.8,53.5,92.2,53.1,91.7z M46.8,86.8h2.6c0.7,0,1.1,0.1,1.5,0.4c0.3,0.3,0.5,0.7,0.5,1.2c0,0.5-0.2,0.9-0.5,1.2
	C50.5,89.8,50,90,49.3,90h-2.6V86.8z M50.9,94.6c-0.3,0.3-0.8,0.4-1.5,0.4h-2.6v-3.1h2.6c0.7,0,1.2,0.1,1.5,0.4
	c0.3,0.3,0.5,0.7,0.5,1.1C51.4,93.9,51.2,94.3,50.9,94.6z M64.7,88.2c-0.1-1.1-0.5-2-1.3-2.6c-0.7-0.6-1.8-0.9-3.1-0.9
	c-1.4,0-2.4,0.3-3.2,0.9c-0.8,0.6-1.2,1.4-1.2,2.4c0,0.9,0.2,1.5,0.7,2c0.5,0.5,1.2,0.9,2.1,1.3l2.4,0.9c0.5,0.2,0.9,0.4,1.2,0.6
	c0.2,0.2,0.4,0.6,0.4,1c0,0.4-0.2,0.8-0.6,1c-0.4,0.3-0.9,0.4-1.4,0.4c-0.5,0-0.9,0-1.2-0.1c-1-0.3-1.5-0.9-1.5-1.9h-2.2
	c0,1.3,0.5,2.3,1.5,3c0.8,0.7,1.9,1,3.2,1c1.5,0,2.7-0.3,3.5-1c0.8-0.6,1.2-1.5,1.2-2.6c0-0.8-0.2-1.4-0.7-2c-0.5-0.5-1.2-1-2.1-1.3
	l-2.6-1c-0.5-0.2-0.8-0.4-1.1-0.6c-0.2-0.2-0.3-0.5-0.3-0.8c0-0.4,0.2-0.7,0.5-0.9c0.4-0.3,0.8-0.4,1.5-0.4c1.3,0,2,0.5,2.2,1.6
	H64.7z M67.6,96.9h2.2v-12h-2.2V96.9z M71.3,86.8H75v10.1h2.2V86.8h3.7v-1.9h-9.6V86.8z M82.4,96.9h7.8V95h-5.6v-3.2h5.2v-1.9h-5.2
	v-3.2h5.6v-1.9h-7.8V96.9z M105.5,86.5c-1.1-1.1-2.6-1.6-4.4-1.6h-3.9v12h3.9c1.8,0,3.3-0.5,4.4-1.6c1.1-1.1,1.7-2.5,1.7-4.4
	C107.2,89.1,106.6,87.6,105.5,86.5z M103.8,93.8c-0.7,0.8-1.6,1.2-2.8,1.2h-1.7v-8.1h1.7c1.2,0,2.1,0.4,2.8,1.1c0.7,0.7,1,1.7,1,2.9
	C104.8,92.1,104.5,93,103.8,93.8z M109.5,96.9h7.8V95h-5.6v-3.2h5.2v-1.9h-5.2v-3.2h5.6v-1.9h-7.8V96.9z M128.5,88.2
	c-0.1-1.1-0.5-2-1.3-2.6c-0.7-0.6-1.8-0.9-3.1-0.9c-1.4,0-2.4,0.3-3.2,0.9c-0.8,0.6-1.2,1.4-1.2,2.4c0,0.9,0.2,1.5,0.7,2
	c0.5,0.5,1.2,0.9,2.1,1.3l2.4,0.9c0.5,0.2,0.9,0.4,1.2,0.6c0.2,0.2,0.4,0.6,0.4,1c0,0.4-0.2,0.8-0.6,1c-0.4,0.3-0.9,0.4-1.4,0.4
	c-0.5,0-0.9,0-1.2-0.1c-1-0.3-1.5-0.9-1.5-1.9h-2.2c0,1.3,0.5,2.3,1.5,3c0.8,0.7,1.9,1,3.2,1c1.5,0,2.7-0.3,3.5-1
	c0.8-0.6,1.2-1.5,1.2-2.6c0-0.8-0.2-1.4-0.7-2c-0.5-0.5-1.2-1-2.1-1.3l-2.6-1c-0.5-0.2-0.8-0.4-1.1-0.6c-0.2-0.2-0.3-0.5-0.3-0.8
	c0-0.4,0.2-0.7,0.5-0.9c0.4-0.3,0.8-0.4,1.5-0.4c1.3,0,2,0.5,2.2,1.6H128.5z M131.4,96.9h2.2v-12h-2.2V96.9z M144.3,96.9h1.8v-6.2
	h-4.8v1.4l2.7,0.1v0.1c0,0.9-0.3,1.6-0.8,2.1c-0.5,0.5-1.2,0.8-1.9,0.8c-0.9,0-1.7-0.4-2.2-1.2c-0.6-0.8-0.9-1.8-0.9-3
	c0-1.3,0.3-2.4,0.9-3.2c0.6-0.8,1.4-1.2,2.3-1.2c1,0,1.8,0.5,2.5,1.6l2.2-0.5c-0.4-1.1-1-1.8-1.8-2.3c-0.8-0.5-1.7-0.7-2.8-0.7
	c-1.7,0-3,0.6-4.1,1.7c-1.1,1.2-1.6,2.7-1.6,4.6c0,1.8,0.5,3.3,1.5,4.5c1,1.1,2.2,1.7,3.7,1.7c1.5,0,2.5-0.7,3-2.2L144.3,96.9z
	 M148.8,84.9v12h2.2v-8.8l5.5,8.8h2.2v-12h-2.2v8.5l-5.3-8.5H148.8z M174.4,86.5c-1.1-1.1-2.6-1.6-4.4-1.6H166v12h3.9
	c1.8,0,3.3-0.5,4.4-1.6c1.1-1.1,1.7-2.5,1.7-4.4C176.1,89.1,175.5,87.6,174.4,86.5z M172.7,93.8c-0.7,0.8-1.6,1.2-2.8,1.2h-1.7v-8.1
	h1.7c1.2,0,2.1,0.4,2.8,1.1c0.7,0.7,1,1.7,1,2.9C173.7,92.1,173.4,93,172.7,93.8z M184.5,92c0.9-0.2,1.6-0.7,2.1-1.3
	c0.5-0.6,0.7-1.3,0.7-2.2c0-1.1-0.4-2-1.2-2.7c-0.8-0.7-1.9-1-3.3-1h-4.5v12h2.2v-4.7h1.7l2.7,4.7h2.9L184.5,92z M182.6,90.8h-2.1
	v-4h2.3c0.7,0,1.3,0.2,1.7,0.5c0.4,0.4,0.6,0.8,0.6,1.4c0,0.6-0.2,1.1-0.6,1.4C184,90.6,183.4,90.8,182.6,90.8z M195.5,84.9h-2.7
	l-4.1,12h2.3l0.9-2.6h4.5l0.8,2.6h2.3L195.5,84.9z M192.4,92.7l1.7-5.2l1.7,5.2H192.4z M201.2,96.9h2.2v-5.1h4.9v-1.9h-4.9v-3.2h5.4
	v-1.9h-7.6V96.9z M209.3,86.8h3.7v10.1h2.2V86.8h3.7v-1.9h-9.6V86.8z M223.1,86.8h3.7v10.1h2.2V86.8h3.7v-1.9h-9.6V86.8z
	 M242.7,86.2c-0.5-0.5-1.1-0.9-1.7-1.2c-0.7-0.3-1.4-0.4-2.2-0.4c-1.7,0-3,0.5-4,1.5c-1,1.1-1.5,2.7-1.5,4.7c0,2,0.5,3.6,1.5,4.7
	c1,1.1,2.3,1.6,3.9,1.6c1.7,0,3-0.5,4-1.6c1-1.1,1.5-2.7,1.5-4.7C244.3,88.9,243.8,87.3,242.7,86.2z M241.1,94.1
	c-0.6,0.7-1.4,1.1-2.3,1.1c-1,0-1.8-0.4-2.3-1.1c-0.6-0.7-0.9-1.8-0.9-3.2c0-1.4,0.3-2.4,0.9-3.2c0.6-0.7,1.4-1.1,2.3-1.1
	c1,0,1.8,0.4,2.3,1.1c0.6,0.7,0.9,1.8,0.9,3.2C242,92.3,241.7,93.3,241.1,94.1z M254.8,86.5c-1.1-1.1-2.6-1.6-4.4-1.6h-3.9v12h3.9
	c1.8,0,3.3-0.5,4.4-1.6c1.1-1.1,1.7-2.5,1.7-4.4C256.5,89.1,255.9,87.6,254.8,86.5z M253.1,93.8c-0.7,0.8-1.6,1.2-2.8,1.2h-1.7v-8.1
	h1.7c1.2,0,2.1,0.4,2.8,1.1c0.7,0.7,1,1.7,1,2.9C254.1,92.1,253.8,93,253.1,93.8z M264.3,84.9h-2.7l-4.1,12h2.3l0.9-2.6h4.5l0.8,2.6
	h2.3L264.3,84.9z M261.2,92.7l1.7-5.2l1.7,5.2H261.2z M268.1,84.9l4.1,7.1v5h2.2v-5l4.3-7.1h-2.6l-2.8,4.8l-2.7-4.8H268.1z"/>
</svg>
